<svg xmlns="http://www.w3.org/2000/svg" width="300" height="93" viewBox="0 0 1000.27 308.87"><defs><style>.cls-1{isolation:isolate;}.cls-2{fill:#38bcdb;}.cls-2,.cls-3,.cls-4{mix-blend-mode:overlay;}.cls-3{fill:#2e91a3;}.cls-4{fill:#6ccce6;}.cls-5{fill:#fff;}.cls-6{fill:#231f20;}</style></defs><title>tes_logo_hz_bglt</title><g class="cls-1"><g id="Layer_2" data-name="Layer 2"><g id="Layer_1-2" data-name="Layer 1"><polygon class="cls-2" points="337.73 79.57 383.67 0 205.76 0 205.76 0.26 337.73 79.57"/><polygon class="cls-2" points="205.76 0 205.34 0 205.55 0.13 205.76 0"/><polygon class="cls-2" points="205.34 0 27.01 0 72.81 79.32 205.34 0.25 205.34 0"/><polygon class="cls-2" points="204.88 308.07 205.34 308.87 205.34 308.49 204.88 308.07"/><polygon class="cls-3" points="205.34 308.87 205.55 308.68 205.49 308.62 205.34 308.87"/><polygon class="cls-3" points="205.76 308.49 409.59 122.76 337.73 79.57 205.76 308.14 205.76 308.49"/><polygon class="cls-2" points="205.76 75.45 281.12 75.45 281.12 110.9 227.69 110.9 227.69 221.25 205.76 221.25 205.76 308.14 337.73 79.57 205.76 0.26 205.76 75.45"/><polygon class="cls-3" points="205.76 75.45 281.12 75.45 281.12 110.9 227.69 110.9 227.69 221.25 205.76 221.25 205.76 308.14 337.73 79.57 205.76 0.26 205.76 75.45"/><polygon class="cls-2" points="205.34 308.49 205.34 308.87 205.49 308.62 205.34 308.49"/><polygon class="cls-3" points="205.34 308.49 205.34 308.87 205.49 308.62 205.34 308.49"/><polygon class="cls-2" points="205.55 0.13 205.34 0 205.34 0.25 205.55 0.13"/><polygon class="cls-3" points="205.55 0.13 205.34 0 205.34 0.25 205.55 0.13"/><polygon class="cls-4" points="205.76 308.49 205.55 308.68 205.76 308.87 205.76 308.49"/><polygon class="cls-4" points="0 122.76 204.88 308.07 72.81 79.32 0 122.76"/><polygon class="cls-2" points="205.34 221.25 183.82 221.25 183.82 110.9 130.39 110.9 130.39 75.45 205.34 75.45 205.34 0.25 72.81 79.32 204.88 308.07 205.34 308.49 205.34 221.25"/><polygon class="cls-4" points="205.34 221.25 183.82 221.25 183.82 110.9 130.39 110.9 130.39 75.45 205.34 75.45 205.34 0.25 72.81 79.32 204.88 308.07 205.34 308.49 205.34 221.25"/><polygon class="cls-2" points="205.76 0.26 205.76 0 205.55 0.13 205.76 0.26"/><polygon class="cls-4" points="205.76 0.26 205.76 0 205.55 0.13 205.76 0.26"/><polygon class="cls-3" points="205.76 308.14 205.49 308.62 205.55 308.68 205.76 308.49 205.76 308.14"/><polygon class="cls-4" points="205.76 308.14 205.49 308.62 205.55 308.68 205.76 308.49 205.76 308.14"/><polygon class="cls-2" points="205.34 221.25 205.34 308.49 205.49 308.62 205.76 308.14 205.76 221.25 205.34 221.25"/><polygon class="cls-3" points="205.34 221.25 205.34 308.49 205.49 308.62 205.76 308.14 205.76 221.25 205.34 221.25"/><polygon class="cls-4" points="205.34 221.25 205.34 308.49 205.49 308.62 205.76 308.14 205.76 221.25 205.34 221.25"/><polygon class="cls-2" points="205.76 0.26 205.55 0.13 205.34 0.25 205.34 75.45 205.76 75.45 205.76 0.26"/><polygon class="cls-3" points="205.76 0.26 205.55 0.13 205.34 0.25 205.34 75.45 205.76 75.45 205.76 0.26"/><polygon class="cls-4" points="205.76 0.26 205.55 0.13 205.34 0.25 205.34 75.45 205.76 75.45 205.76 0.26"/><polygon class="cls-5" points="227.69 221.25 227.69 110.9 281.12 110.9 281.12 75.45 205.76 75.45 205.34 75.45 130.39 75.45 130.39 110.9 183.82 110.9 183.82 221.25 205.34 221.25 205.76 221.25 227.69 221.25"/><path class="cls-6" d="M467.82,94.29H437.08V79.65h78.49V94.29H484.83v79h-17Z"/><path class="cls-6" d="M528,79.65h30.21c10.16,0,14.77.79,18.87,2.64,9.37,4.22,15.3,13.19,15.3,25.59,0,11.21-5.94,21.64-15.83,25.59v.26a22.93,22.93,0,0,1,3.17,4.62l19.26,35H580l-18.6-35H545v35H528Zm32.32,43.93c9.1,0,14.78-5.41,14.78-14.78,0-9-3.83-14.51-17.15-14.51H545v29.29Z"/><path class="cls-6" d="M614.78,79.65h17v93.67h-17Z"/><path class="cls-6" d="M655.55,79.65h17v79h40.5v14.64H655.55Z"/><path class="cls-6" d="M767,78.07c27.57,0,48.42,21,48.42,47.76,0,27.57-20.84,49.08-48.42,49.08s-48.42-21.5-48.42-49.08C718.61,99,739.45,78.07,767,78.07Zm0,81.27c17.15,0,30.87-14.25,30.87-33.51,0-18.47-13.72-32.19-30.87-32.19s-30.87,13.72-30.87,32.19C736.15,145.08,749.87,159.33,767,159.33Z"/><path class="cls-6" d="M874.68,78.07c23,0,34.83,11.87,34.83,11.87l-8.44,12.67a40.36,40.36,0,0,0-24.93-9c-21,0-32.19,14.51-32.19,32.19,0,20.32,13.85,33.51,31.4,33.51,14.12,0,23.48-9.76,23.48-9.76V138.62H884.44V124h29.68v49.34H899.61v-4.49c0-2,.13-4,.13-4h-.26s-9.76,10-27.18,10c-24.67,0-45.91-19.13-45.91-48.55C826.39,99.17,846.84,78.07,874.68,78.07Z"/><path class="cls-6" d="M952.12,134.13,921,79.65h19.26l14.64,27.57c3,5.8,5.54,12.66,5.67,12.53h.26s2.64-6.73,5.67-12.53L981,79.65h19.26l-31.13,54.48v39.18h-17Z"/><path class="cls-6" d="M449.72,192.9h21.79v5.69H456.33v9.53h12.25v5.69H456.33v9.79h16v5.69H449.72Z"/><path class="cls-6" d="M479.19,192.9H491.6c11.23,0,18.56,6.66,18.56,18.15s-7.33,18.25-18.56,18.25H479.19Zm12,30.7c7.38,0,12.1-4.36,12.1-12.56s-4.82-12.46-12.1-12.46H485.8v25Z"/><path class="cls-6" d="M516.56,192.9h6.61v23.32c0,4.87,3.18,7.64,8,7.64s8.1-2.77,8.1-7.69V192.9h6.61v23.32c0,8.15-5.9,13.69-14.66,13.69s-14.71-5.54-14.71-13.69Z"/><path class="cls-6" d="M570.83,192.29c8.87,0,13.43,5,13.43,5l-3.18,4.92a16,16,0,0,0-9.94-3.85c-7.69,0-12.2,5.74-12.2,12.51,0,6.92,4.66,13,12.25,13a15.68,15.68,0,0,0,10.56-4.61l3.49,4.77a19.59,19.59,0,0,1-14.3,5.89c-11.12,0-18.81-8.25-18.81-19A18.29,18.29,0,0,1,570.83,192.29Z"/><path class="cls-6" d="M609.43,220H596.66l-3.08,9.33h-6.82l12.81-36.39h6.92l12.81,36.39H612.5ZM603,199.21s-.82,3.59-1.54,5.64l-3.23,9.74h9.53l-3.23-9.74c-.67-2.05-1.44-5.64-1.44-5.64Z"/><path class="cls-6" d="M629.42,198.59H617.47V192.9H648v5.69H636v30.7h-6.61Z"/><path class="cls-6" d="M652.79,192.9h6.61v36.39h-6.61Z"/><path class="cls-6" d="M684.92,192.29a18.39,18.39,0,0,1,18.81,18.56c0,10.71-8.1,19.07-18.81,19.07s-18.81-8.35-18.81-19.07A18.39,18.39,0,0,1,684.92,192.29Zm0,31.58c6.66,0,12-5.54,12-13,0-7.18-5.33-12.51-12-12.51s-12,5.33-12,12.51C672.93,218.32,678.26,223.86,684.92,223.86Z"/><path class="cls-6" d="M710.45,192.9h6.61l13.79,21a55.27,55.27,0,0,1,3,5.64h.1s-.36-3.48-.36-5.64v-21h6.56v36.39h-6.56l-13.79-21a55.06,55.06,0,0,1-3-5.64h-.1s.36,3.49.36,5.64v21h-6.61Z"/><path class="cls-6" d="M762.67,220s3.95,3.84,9.07,3.84c2.77,0,5.28-1.44,5.28-4.41,0-6.51-17.17-5.38-17.17-16.56,0-6,5.23-10.56,12.2-10.56,7.18,0,10.87,3.9,10.87,3.9l-2.87,5.38a13.29,13.29,0,0,0-8-3.18c-3.08,0-5.48,1.79-5.48,4.36,0,6.46,17.12,4.87,17.12,16.51,0,5.79-4.41,10.66-12,10.66a17.62,17.62,0,0,1-12.56-5Z"/><path class="cls-6" d="M790.25,192.9H812v5.69H796.86v9.53h12.25v5.69H796.86v9.79h16v5.69H790.25Z"/><path class="cls-6" d="M819.72,192.9h11.74c3.95,0,5.74.31,7.33,1,3.64,1.64,5.95,5.13,5.95,9.94,0,4.36-2.31,8.41-6.15,9.94v.1a8.94,8.94,0,0,1,1.23,1.79l7.48,13.58h-7.38l-7.23-13.58h-6.36v13.58h-6.61ZM832.28,210c3.54,0,5.74-2.1,5.74-5.74,0-3.48-1.49-5.64-6.66-5.64h-5V210Z"/><path class="cls-6" d="M848.52,192.9h7.13l8,23.73c.72,2.1,1.33,5.33,1.38,5.33h.1c.05,0,.67-3.23,1.38-5.33l8-23.73h7.07l-13.28,36.39H861.8Z"/><path class="cls-6" d="M886.19,192.9h6.61v36.39h-6.61Z"/><path class="cls-6" d="M918.23,192.29c8.87,0,13.43,5,13.43,5l-3.18,4.92a16,16,0,0,0-9.94-3.85c-7.69,0-12.2,5.74-12.2,12.51,0,6.92,4.66,13,12.25,13a15.68,15.68,0,0,0,10.56-4.61l3.49,4.77a19.59,19.59,0,0,1-14.3,5.89c-11.12,0-18.81-8.25-18.81-19A18.29,18.29,0,0,1,918.23,192.29Z"/><path class="cls-6" d="M938.73,192.9h21.79v5.69H945.34v9.53h12.25v5.69H945.34v9.79h16v5.69H938.73Z"/><path class="cls-6" d="M969,220s3.95,3.84,9.07,3.84c2.77,0,5.28-1.44,5.28-4.41,0-6.51-17.17-5.38-17.17-16.56,0-6,5.23-10.56,12.2-10.56,7.18,0,10.87,3.9,10.87,3.9l-2.87,5.38a13.29,13.29,0,0,0-8-3.18c-3.08,0-5.48,1.79-5.48,4.36,0,6.46,17.12,4.87,17.12,16.51,0,5.79-4.41,10.66-12,10.66a17.62,17.62,0,0,1-12.56-5Z"/></g></g></g></svg>